<?xml version="1.0" standalone="no"?>
<!DOCTYPE svg PUBLIC "-//W3C//DTD SVG 20010904//EN"
 "http://www.w3.org/TR/2001/REC-SVG-20010904/DTD/svg10.dtd">
<svg version="1.0" xmlns="http://www.w3.org/2000/svg"
 width="120.000000pt" height="120.000000pt" viewBox="0 0 120.000000 120.000000"
 preserveAspectRatio="xMidYMid meet">
<metadata>
Created by potrace 1.14, written by Peter Selinger 2001-2017
</metadata>
<g transform="translate(0.000000,120.000000) scale(0.100000,-0.100000)"
fill="#000000" stroke="none">
<path d="M136 888 c6 -10 148 -183 222 -270 13 -15 4 -30 -94 -148 -157 -189
-151 -170 -58 -170 l79 0 120 146 120 145 3 -101 3 -100 69 0 69 0 3 100 3
101 120 -145 120 -146 78 0 c42 0 77 2 77 4 0 2 -54 69 -120 148 -66 78 -120
145 -120 148 0 4 140 176 209 255 37 44 36 45 -46 45 l-78 0 -120 -146 -120
-145 -3 101 -3 100 -69 0 -69 0 -3 -101 -3 -101 -120 146 -120 145 -78 1 c-60
0 -76 -3 -71 -12z"/>
</g>
</svg>
